# xmcd
#
# Track frame offsets: 
#        182
#        41527
#        54912
#        75152
#        95482
#        112860
#        137585
#        178457
#        198897
#        212767
#        225552
#        241727
#        252647
#        272362
#        285207
#        305042
#        330522
#
# Disc length: 4672 seconds
#
# Revision: 0
# Processed by: cddbd v1.4PL0 Copyright (c) Steve Scherf et al.
# Submitted via: ExactAudioCopy v0.90a11
#
DISCID=dc123e11
DTITLE=Various Artist - The blues 17 bluestracks
DYEAR=1900
DGENRE=
TTITLE0=Stevie ray vaughan/tin pan alley
TTITLE1=Taj mahal/statesboro blues
TTITLE2=Johnny winter/medecine man
TTITLE3=Mark curry/all over me
TTITLE4=Spencer bohren/full moon
TTITLE5=Albert king/born under a bad sign
TTITLE6=John lee hooker/fell good
TTITLE7=Michael bloomfield/i must see jesus
TTITLE8=Eddie kirkland/big city behind the sun
TTITLE9=Robert cray/too many cooks
TTITLE10=Rory block/mississippi blues
TTITLE11=Howlin' wolf/little red rooster
TTITLE12=Johhny shines/too wet to plow
TTITLE13=Mississippi fred mc dowell/you got to move
TTITLE14=The vaughan brothers/good texan
TTITLE15=The dickey betts band/rock bottem
TTITLE16=Chicken shack/the way it is
EXTD=
EXTT0=
EXTT1=
EXTT2=
EXTT3=
EXTT4=
EXTT5=
EXTT6=
EXTT7=
EXTT8=
EXTT9=
EXTT10=
EXTT11=
EXTT12=
EXTT13=
EXTT14=
EXTT15=
EXTT16=
PLAYORDER=
